<?xml version="1.0" standalone="no"?>
<!DOCTYPE svg PUBLIC "-//W3C//DTD SVG 20010904//EN"
 "http://www.w3.org/TR/2001/REC-SVG-20010904/DTD/svg10.dtd">
<svg version="1.0" xmlns="http://www.w3.org/2000/svg"
 width="557.000000pt" height="557.000000pt" viewBox="0 0 557.000000 557.000000"
 preserveAspectRatio="xMidYMid meet">

<g transform="translate(0.000000,557.000000) scale(0.100000,-0.100000)"
fill="#70C7BA" stroke="none">
<path d="M2600 5244 c-452 -41 -836 -173 -1190 -410 -595 -398 -980 -1022
-1081 -1754 -20 -140 -17 -487 5 -630 60 -395 182 -717 392 -1030 398 -595
1022 -980 1754 -1081 140 -20 487 -17 630 5 395 60 717 182 1030 392 595 398
980 1022 1081 1754 20 140 17 487 -5 630 -60 395 -182 717 -392 1030 -391 586
-1009 972 -1719 1076 -99 14 -418 26 -505 18z m388 -455 c940 -102 1676 -831
1787 -1769 131 -1107 -657 -2104 -1765 -2235 -1107 -131 -2104 657 -2235 1765
-90 762 252 1497 895 1920 382 251 867 369 1318 319z"/>
<path d="M2570 3635 l0 -165 170 0 170 0 0 165 0 165 -170 0 -170 0 0 -165z"/>
<path d="M2570 2545 l0 -705 170 0 170 0 0 705 0 705 -170 0 -170 0 0 -705z"/>
</g>
</svg>
