<?xml version="1.0" standalone="no"?>
<!DOCTYPE svg PUBLIC "-//W3C//DTD SVG 20010904//EN"
 "http://www.w3.org/TR/2001/REC-SVG-20010904/DTD/svg10.dtd">
<svg version="1.0" xmlns="http://www.w3.org/2000/svg"
 width="550.000000pt" height="550.000000pt" viewBox="0 0 550.000000 550.000000"
 preserveAspectRatio="xMidYMid meet">

<g transform="translate(0.000000,550.000000) scale(0.100000,-0.100000)"
fill="#70C7BA" stroke="none">
<path d="M1253 5000 c-184 -27 -350 -115 -484 -257 -77 -81 -126 -159 -168
-265 -64 -158 -62 -101 -59 -1759 l3 -1504 28 -88 c49 -158 117 -267 234 -378
81 -77 159 -126 265 -168 158 -64 106 -62 1714 -59 l1459 3 88 28 c158 49 267
117 378 234 77 82 126 159 168 266 64 160 62 101 59 1758 l-3 1504 -28 88
c-49 158 -117 267 -234 378 -81 76 -159 126 -264 168 -157 63 -109 61 -1678
60 -784 -1 -1449 -5 -1478 -9z m2969 -301 c139 -29 284 -140 352 -268 70 -133
66 -37 66 -1668 0 -1037 -3 -1488 -11 -1525 -29 -139 -140 -284 -268 -352
-132 -69 -41 -66 -1623 -66 -1004 0 -1443 3 -1480 11 -139 29 -284 140 -352
268 -70 133 -66 37 -66 1668 0 1037 3 1488 11 1525 39 187 206 356 395 402 49
12 292 14 1491 15 1010 1 1448 -2 1485 -10z"/>
<path d="M3183 4470 c-133 -27 -247 -149 -274 -294 -6 -36 -9 -232 -7 -534 l3
-477 27 -57 c50 -108 154 -187 272 -209 36 -6 229 -9 524 -7 l467 3 57 27
c108 50 187 154 209 272 6 36 9 232 7 534 l-3 477 -27 57 c-49 106 -153 186
-268 208 -63 12 -926 12 -987 0z m971 -312 c14 -20 16 -82 16 -480 l0 -457
-22 -15 c-20 -14 -81 -16 -470 -16 l-447 0 -15 22 c-14 20 -16 82 -16 480 l0
457 22 15 c20 14 81 16 470 16 l447 0 15 -22z"/>
<path d="M3626 3873 c-82 -23 -153 -126 -143 -208 15 -139 189 -219 304 -141
58 39 98 118 90 181 -6 57 -45 115 -97 144 -39 22 -118 35 -154 24z"/>
<path d="M1220 4270 l0 -150 650 0 650 0 0 150 0 150 -650 0 -650 0 0 -150z"/>
<path d="M1220 3690 l0 -150 650 0 650 0 0 150 0 150 -650 0 -650 0 0 -150z"/>
<path d="M1220 3100 l0 -150 650 0 650 0 0 150 0 150 -650 0 -650 0 0 -150z"/>
<path d="M1313 2700 c-133 -27 -247 -149 -274 -294 -6 -36 -9 -234 -7 -539 l3
-482 27 -57 c50 -108 154 -187 272 -209 36 -6 229 -9 524 -7 l467 3 57 27
c108 50 187 154 209 272 6 36 9 234 7 539 l-3 482 -27 57 c-49 106 -153 186
-268 208 -63 12 -926 12 -987 0z m971 -312 c14 -20 16 -83 16 -485 l0 -462
-22 -15 c-20 -14 -81 -16 -470 -16 l-447 0 -15 22 c-14 20 -16 83 -16 485 l0
462 22 15 c20 14 81 16 470 16 l447 0 15 -22z"/>
<path d="M1729 2087 c-98 -52 -136 -186 -77 -274 37 -56 121 -98 183 -90 66 7
118 46 150 112 22 44 26 65 22 100 -7 65 -45 117 -108 149 -65 32 -113 33
-170 3z"/>
<path d="M2900 1910 l0 -650 150 0 150 0 0 650 0 650 -150 0 -150 0 0 -650z"/>
<path d="M3480 1910 l0 -650 150 0 150 0 0 650 0 650 -150 0 -150 0 0 -650z"/>
<path d="M4060 1910 l0 -650 150 0 150 0 0 650 0 650 -150 0 -150 0 0 -650z"/>
</g>
</svg>
