<?xml version="1.0" standalone="no"?>
<!DOCTYPE svg PUBLIC "-//W3C//DTD SVG 20010904//EN"
 "http://www.w3.org/TR/2001/REC-SVG-20010904/DTD/svg10.dtd">
<svg version="1.0" xmlns="http://www.w3.org/2000/svg"
 width="400.000000pt" height="400.000000pt" viewBox="0 0 400.000000 400.000000"
 preserveAspectRatio="xMidYMid meet">

<g transform="translate(0.000000,400.000000) scale(0.100000,-0.100000)"
fill="#70C7BA" stroke="none">
<path d="M1487 3360 c-96 -24 -81 -10 -852 -820 -356 -375 -378 -402 -390
-505 -8 -62 14 -160 47 -209 21 -30 948 -1005 1049 -1103 150 -145 378 -106
477 82 24 44 27 61 27 145 0 84 -3 101 -27 145 -17 33 -115 144 -277 312 -138
144 -251 264 -251 267 0 3 503 7 1118 8 l1117 3 57 28 c108 53 172 159 173
287 0 130 -65 234 -185 293 l-45 22 -1123 3 -1123 2 256 267 c299 311 310 328
310 463 0 100 -20 154 -84 223 -67 72 -183 109 -274 87z"/>
</g>
</svg>
