<?xml version="1.0" standalone="no"?>
<!DOCTYPE svg PUBLIC "-//W3C//DTD SVG 20010904//EN"
 "http://www.w3.org/TR/2001/REC-SVG-20010904/DTD/svg10.dtd">
<svg version="1.0" xmlns="http://www.w3.org/2000/svg"
 width="500.000000pt" height="500.000000pt" viewBox="0 0 500.000000 500.000000"
 preserveAspectRatio="xMidYMid meet">

<g transform="translate(0.000000,500.000000) scale(0.100000,-0.100000)"
fill="#70C7BA" stroke="none">
<path d="M1695 4241 c-16 -4 -43 -15 -60 -24 -41 -21 -1589 -1574 -1608 -1612
-26 -53 -30 -110 -12 -172 16 -58 20 -62 803 -846 476 -476 803 -797 827 -809
28 -15 59 -22 105 -22 186 -2 303 189 219 357 -14 28 -202 223 -567 589 l-547
548 1980 2 1980 3 40 21 c92 50 139 125 139 224 0 99 -47 174 -139 224 l-40
21 -1980 3 -1979 2 546 548 c364 364 553 561 567 589 43 86 38 167 -17 253
-49 77 -169 124 -257 101z"/>
</g>
</svg>
