<?xml version="1.0" standalone="no"?>
<!DOCTYPE svg PUBLIC "-//W3C//DTD SVG 20010904//EN"
 "http://www.w3.org/TR/2001/REC-SVG-20010904/DTD/svg10.dtd">
<svg version="1.0" xmlns="http://www.w3.org/2000/svg"
 width="512.000000pt" height="512.000000pt" viewBox="0 0 512.000000 512.000000"
 preserveAspectRatio="xMidYMid meet">

<g transform="translate(0.000000,512.000000) scale(0.100000,-0.100000)"
fill="#70C7BA" stroke="none">
<path d="M284 4769 c-18 -5 -48 -27 -67 -48 -55 -61 -61 -135 -16 -208 38 -62
60 -67 291 -73 191 -5 209 -7 227 -25 14 -14 135 -414 391 -1285 252 -857 382
-1284 403 -1325 41 -76 136 -172 208 -208 118 -59 75 -57 1180 -57 1118 0
1058 -3 1181 62 97 51 186 151 226 254 11 27 122 425 247 885 183 671 227 842
221 871 -9 50 -44 98 -88 120 -35 18 -71 19 -827 19 l-791 1 0 450 0 451 -25
43 c-26 44 -90 84 -136 84 -71 0 -144 -49 -168 -113 -7 -18 -11 -184 -11 -473
l0 -444 -720 0 -720 0 -10 23 c-6 12 -58 184 -116 382 -58 198 -117 381 -131
407 -31 58 -113 138 -171 167 -83 42 -144 51 -352 50 -107 0 -209 -5 -226 -10z
m2786 -1574 c0 -305 3 -555 7 -555 4 0 102 94 218 209 226 225 235 232 323
217 104 -16 164 -140 117 -240 -20 -42 -732 -752 -768 -765 -41 -16 -103 -13
-140 5 -42 21 -711 686 -748 743 -50 77 -34 173 38 228 45 35 125 43 174 18
19 -10 125 -108 237 -218 l202 -201 0 557 0 557 170 0 170 0 0 -555z"/>
<path d="M1939 1176 c-94 -33 -175 -113 -210 -205 -17 -45 -20 -71 -17 -136 5
-81 23 -132 71 -197 57 -77 201 -136 302 -123 69 8 161 53 207 101 95 100 121
256 65 379 -36 76 -110 147 -183 175 -64 23 -178 27 -235 6z"/>
<path d="M3640 1174 c-106 -39 -187 -130 -216 -244 -40 -156 41 -317 195 -388
45 -21 71 -26 136 -27 71 0 88 4 147 33 253 124 256 480 5 609 -67 34 -197 42
-267 17z"/>
</g>
</svg>
