<?xml version="1.0" standalone="no"?>
<!DOCTYPE svg PUBLIC "-//W3C//DTD SVG 20010904//EN"
 "http://www.w3.org/TR/2001/REC-SVG-20010904/DTD/svg10.dtd">
<svg version="1.0" xmlns="http://www.w3.org/2000/svg"
 width="1048.000000pt" height="1042.000000pt" viewBox="0 0 1048.000000 1042.000000"
 preserveAspectRatio="xMidYMid meet">

<g transform="translate(0.000000,1042.000000) scale(0.100000,-0.100000)"
fill="#70C7BA" stroke="none">
<path d="M1215 9814 c-176 -16 -331 -57 -460 -121 -354 -177 -607 -518 -665
-898 -16 -102 -16 -278 0 -380 68 -444 396 -825 830 -963 122 -39 228 -55 365
-55 137 0 243 16 365 55 375 120 668 413 788 788 39 122 55 228 55 365 0 137
-16 243 -55 365 -120 375 -413 668 -788 788 -129 41 -323 66 -435 56z"/>
<path d="M5685 6778 c-129 -48 -199 -168 -181 -310 12 -92 -6 -72 598 -684
142 -144 258 -267 258 -273 0 -8 -409 -11 -1502 -11 -1641 0 -1543 3 -1630
-56 -147 -102 -147 -346 1 -448 84 -58 16 -56 1633 -56 1039 0 1489 -3 1493
-11 4 -5 -85 -103 -197 -217 -663 -672 -642 -649 -654 -729 -15 -101 11 -185
78 -254 56 -57 108 -79 194 -79 127 0 100 -24 833 725 363 370 666 686 674
702 9 16 22 54 30 86 13 51 13 63 0 114 -26 100 10 58 -502 583 -787 804 -864
881 -911 903 -52 24 -169 33 -215 15z"/>
<path d="M1215 6454 c-176 -16 -331 -57 -460 -121 -354 -177 -607 -518 -665
-898 -16 -102 -16 -278 0 -380 68 -444 396 -825 830 -963 122 -39 228 -55 365
-55 137 0 243 16 365 55 375 120 668 413 788 788 39 122 55 228 55 365 0 137
-16 243 -55 365 -120 375 -413 668 -788 788 -129 41 -323 66 -435 56z"/>
<path d="M9045 6419 c-281 -26 -536 -147 -741 -353 -259 -258 -384 -600 -353
-959 25 -292 143 -543 353 -753 210 -210 461 -328 753 -353 359 -31 701 94
959 353 259 258 384 600 353 959 -25 292 -143 543 -353 753 -262 262 -605 387
-971 353z"/>
<path d="M1215 3094 c-176 -16 -331 -57 -460 -121 -354 -177 -607 -518 -665
-898 -16 -102 -16 -278 0 -380 68 -444 396 -825 830 -963 122 -39 228 -55 365
-55 137 0 243 16 365 55 375 120 668 413 788 788 39 122 55 228 55 365 0 137
-16 243 -55 365 -120 375 -413 668 -788 788 -129 41 -323 66 -435 56z"/>
</g>
</svg>
