<?xml version="1.0" standalone="no"?>
<!DOCTYPE svg PUBLIC "-//W3C//DTD SVG 20010904//EN"
 "http://www.w3.org/TR/2001/REC-SVG-20010904/DTD/svg10.dtd">
<svg version="1.0" xmlns="http://www.w3.org/2000/svg"
 width="786.000000pt" height="786.000000pt" viewBox="0 0 786.000000 786.000000"
 preserveAspectRatio="xMidYMid meet">

<g transform="translate(0.000000,786.000000) scale(0.100000,-0.100000)"
fill="#70C7BA" stroke="none">
<path d="M510 7783 c-198 -23 -382 -183 -446 -388 -18 -56 -19 -105 -19 -805
0 -704 1 -748 19 -800 62 -181 194 -311 371 -366 56 -18 104 -19 785 -19 685
0 728 1 780 19 181 62 311 194 366 371 18 56 19 105 19 805 0 704 -1 748 -19
800 -61 179 -185 303 -361 363 -58 20 -82 21 -760 23 -385 1 -716 -1 -735 -3z
m1401 -472 l29 -29 0 -687 0 -687 -29 -29 -29 -29 -667 0 -667 0 -29 29 -29
29 0 687 0 687 29 29 29 29 667 0 667 0 29 -29z"/>
<path d="M4504 5965 c-92 -16 -133 -30 -218 -71 -89 -44 -147 -87 -222 -166
-103 -108 -155 -198 -201 -345 l-27 -88 -4 -582 -3 -583 -408 0 c-408 0 -408
0 -452 -23 -145 -77 -143 -283 3 -358 37 -19 58 -20 448 -19 l409 0 3 -567 c4
-544 5 -571 25 -644 42 -149 113 -269 225 -375 108 -103 197 -155 345 -201
l88 -28 1305 0 c1219 0 1310 1 1374 18 142 36 261 102 364 201 113 108 181
218 229 373 l28 88 0 1345 c0 1257 -1 1350 -18 1414 -36 142 -102 261 -201
364 -108 113 -218 181 -373 229 l-88 28 -1280 2 c-1018 1 -1295 -1 -1351 -12z
m337 -964 c24 -15 87 -73 139 -127 51 -54 256 -264 454 -466 202 -206 365
-381 374 -400 18 -43 18 -114 -1 -158 -23 -52 -934 -981 -986 -1004 -55 -26
-146 -19 -195 15 -44 29 -86 108 -86 160 0 73 43 127 328 413 149 150 272 279
272 285 0 8 -180 11 -655 11 l-655 0 0 195 0 195 654 0 c360 0 657 4 660 8 2
4 -122 138 -277 296 -155 159 -290 301 -299 315 -40 59 -31 162 18 221 63 75
174 93 255 41z"/>
<path d="M550 5173 c-198 -23 -382 -183 -446 -388 -18 -56 -19 -105 -19 -805
0 -704 1 -748 19 -800 62 -181 194 -311 371 -366 56 -18 104 -19 785 -19 685
0 728 1 780 19 181 62 311 194 366 371 18 56 19 105 19 805 0 704 -1 748 -19
800 -61 179 -185 303 -361 363 -58 20 -82 21 -760 23 -385 1 -716 -1 -735 -3z
m1401 -472 l29 -29 0 -687 0 -687 -29 -29 -29 -29 -667 0 -667 0 -29 29 -29
29 0 687 0 687 29 29 29 29 667 0 667 0 29 -29z"/>
<path d="M510 2473 c-198 -23 -382 -183 -446 -388 -18 -56 -19 -105 -19 -810
0 -709 1 -753 19 -805 62 -181 194 -311 371 -366 56 -18 104 -19 785 -19 685
0 728 1 780 19 181 62 311 194 366 371 18 56 19 105 19 810 0 709 -1 753 -19
805 -61 179 -185 303 -361 363 -58 20 -82 21 -760 23 -385 1 -716 -1 -735 -3z
m1401 -472 l29 -29 0 -692 0 -692 -29 -29 -29 -29 -667 0 -667 0 -29 29 -29
29 0 692 0 692 29 29 29 29 667 0 667 0 29 -29z"/>
</g>
</svg>
