<?xml version="1.0" standalone="no"?>
<!DOCTYPE svg PUBLIC "-//W3C//DTD SVG 20010904//EN"
 "http://www.w3.org/TR/2001/REC-SVG-20010904/DTD/svg10.dtd">
<svg version="1.0" xmlns="http://www.w3.org/2000/svg"
 width="1042.000000pt" height="1042.000000pt" viewBox="0 0 1042.000000 1042.000000"
 preserveAspectRatio="xMidYMid meet">

<g transform="translate(0.000000,1042.000000) scale(0.100000,-0.100000)"
fill="#70C7BA" stroke="none">
<path d="M7630 9323 l0 -318 97 -55 c332 -189 582 -490 707 -849 62 -177 81
-299 81 -511 -1 -198 -13 -289 -61 -448 -114 -377 -383 -708 -737 -906 l-87
-48 0 -449 0 -449 429 0 c403 0 433 -1 495 -20 137 -43 243 -157 282 -305 11
-41 14 -339 14 -1606 0 -1536 0 -1558 -20 -1623 -32 -103 -106 -191 -205 -243
-97 -51 -119 -53 -572 -53 l-423 0 0 -301 0 -301 473 4 472 4 100 27 c415 111
717 460 765 885 8 68 10 571 8 1677 l-3 1580 -27 100 c-130 475 -536 775
-1051 775 l-88 0 63 52 c243 202 473 510 599 804 452 1055 10 2257 -1022 2775
-89 44 -267 119 -284 119 -3 0 -5 -143 -5 -317z"/>
<path d="M3125 9613 c-347 -30 -667 -133 -947 -305 -821 -504 -1216 -1468
-977 -2388 74 -288 195 -533 383 -778 82 -107 256 -287 338 -349 l49 -38 -124
-7 c-228 -14 -417 -81 -586 -209 -223 -167 -369 -425 -401 -707 -8 -68 -10
-570 -8 -1672 l3 -1575 27 -100 c114 -417 461 -717 886 -765 68 -8 560 -10
1637 -8 l1540 3 100 27 c417 114 717 461 765 886 8 68 10 570 8 1672 l-3 1575
-27 100 c-96 353 -353 619 -698 724 -126 39 -149 42 -328 50 l-153 6 49 38
c81 61 255 241 335 346 412 536 553 1217 386 1861 -55 213 -130 390 -241 572
-321 522 -837 886 -1423 1002 -200 40 -418 54 -590 39z m478 -623 c592 -126
1061 -578 1201 -1160 70 -288 58 -593 -35 -872 -42 -128 -137 -307 -220 -419
-318 -426 -802 -658 -1329 -636 -233 9 -435 62 -641 169 -543 279 -871 844
-846 1458 9 233 62 435 169 641 234 455 679 768 1193 838 114 16 394 5 508
-19z m1321 -3860 c137 -43 243 -157 282 -305 11 -41 14 -338 14 -1601 0 -1531
0 -1553 -20 -1618 -43 -137 -157 -243 -305 -282 -41 -11 -332 -14 -1566 -14
-1496 0 -1518 0 -1583 20 -137 43 -243 157 -282 305 -11 41 -14 338 -14 1601
0 1531 0 1553 20 1618 42 134 156 241 300 282 35 9 379 12 1566 13 1502 1
1523 1 1588 -19z"/>
<path d="M5810 9225 l0 -315 43 -21 c198 -102 422 -293 554 -474 405 -557 403
-1314 -5 -1860 -65 -86 -205 -227 -294 -296 -82 -63 -215 -147 -267 -169 l-31
-12 0 -449 0 -449 439 0 c413 0 443 -1 505 -20 137 -43 243 -157 282 -305 11
-41 14 -339 14 -1606 0 -1536 0 -1558 -20 -1623 -32 -103 -106 -191 -205 -243
-98 -51 -118 -53 -582 -53 l-433 0 0 -301 0 -301 483 4 482 4 100 27 c415 111
717 460 765 885 8 68 10 571 8 1677 l-3 1580 -27 100 c-130 477 -536 775
-1056 775 l-94 0 51 40 c27 22 98 88 157 147 632 636 808 1589 444 2406 -228
512 -665 923 -1202 1133 -48 19 -92 34 -98 34 -7 0 -10 -104 -10 -315z"/>
</g>
</svg>
