<?xml version="1.0" standalone="no"?>
<!DOCTYPE svg PUBLIC "-//W3C//DTD SVG 20010904//EN"
 "http://www.w3.org/TR/2001/REC-SVG-20010904/DTD/svg10.dtd">
<svg version="1.0" xmlns="http://www.w3.org/2000/svg"
 width="512.000000pt" height="512.000000pt" viewBox="0 0 512.000000 512.000000"
 preserveAspectRatio="xMidYMid meet">

<g transform="translate(0.000000,512.000000) scale(0.100000,-0.100000)"
fill="#70C7BA" stroke="none">
<path d="M2370 5094 c-19 -2 -78 -9 -130 -15 -445 -51 -911 -249 -1280 -545
-109 -87 -297 -275 -384 -384 -297 -370 -480 -800 -548 -1285 -16 -117 -16
-503 0 -620 57 -407 191 -765 407 -1090 105 -158 191 -263 334 -405 398 -396
899 -642 1471 -721 123 -17 506 -18 625 -1 296 42 550 119 800 241 778 382
1294 1101 1417 1976 16 117 16 503 0 620 -80 568 -310 1046 -701 1458 -377
396 -914 670 -1476 753 -96 14 -462 27 -535 18z m492 -498 c710 -111 1309
-578 1594 -1245 130 -304 186 -660 154 -982 -49 -488 -252 -920 -595 -1264
-636 -639 -1582 -795 -2379 -393 -644 325 -1063 936 -1136 1657 -49 491 97
1005 403 1416 347 465 863 759 1452 825 108 12 388 4 507 -14z"/>
<path d="M2510 4044 c-14 -2 -59 -9 -100 -15 -198 -29 -362 -108 -491 -239
-73 -73 -94 -102 -138 -191 -65 -131 -100 -267 -108 -415 l-6 -110 29 -23 c27
-21 34 -22 217 -19 228 4 220 -1 231 136 7 96 35 211 65 271 82 159 283 242
483 200 178 -38 283 -178 282 -379 0 -74 -4 -94 -32 -153 -46 -100 -107 -181
-254 -335 -156 -165 -245 -280 -298 -387 -64 -129 -73 -182 -74 -403 -1 -252
-22 -232 243 -232 154 0 201 3 217 14 17 13 19 31 24 218 8 268 16 287 236
518 184 195 266 309 325 452 89 216 76 462 -38 697 -97 201 -288 336 -538 381
-68 12 -238 21 -275 14z"/>
<path d="M2325 1545 c-25 -24 -25 -25 -25 -220 0 -265 -21 -245 260 -245 281
0 260 -20 260 248 0 263 23 242 -259 242 -212 0 -212 0 -236 -25z"/>
</g>
</svg>
