<?xml version="1.0" standalone="no"?>
<!DOCTYPE svg PUBLIC "-//W3C//DTD SVG 20010904//EN"
 "http://www.w3.org/TR/2001/REC-SVG-20010904/DTD/svg10.dtd">
<svg version="1.0" xmlns="http://www.w3.org/2000/svg"
 width="956.000000pt" height="956.000000pt" viewBox="0 0 956.000000 956.000000"
 preserveAspectRatio="xMidYMid meet">

<g transform="translate(0.000000,956.000000) scale(0.100000,-0.100000)"
fill="#70C7BA" stroke="none">
<path d="M6390 8343 c-129 -23 -244 -74 -342 -150 -108 -85 -197 -215 -245
-358 -27 -80 -27 -82 -31 -427 l-4 -348 -664 0 -664 0 0 -975 0 -975 -369 0
-370 0 -3 348 c-5 387 -7 406 -76 540 -74 146 -190 257 -346 332 -144 68 -93
65 -1136 65 -1058 0 -998 4 -1148 -73 -147 -74 -257 -190 -332 -346 -68 -144
-65 -90 -65 -1166 0 -1091 -4 -1028 73 -1178 74 -147 190 -257 346 -332 144
-68 93 -65 1136 -65 1058 0 998 -4 1148 73 142 72 253 186 327 335 66 133 68
147 72 525 l5 342 369 0 369 0 0 -1055 0 -1055 664 0 665 0 4 -347 c4 -386 7
-406 74 -538 91 -178 241 -305 438 -373 l80 -27 960 0 c1074 0 1011 -4 1160
72 178 91 305 241 373 438 l27 80 0 985 c0 1102 4 1036 -72 1185 -91 178 -241
305 -438 373 l-80 27 -960 0 c-1074 0 -1011 4 -1160 -72 -179 -91 -307 -242
-372 -438 -27 -79 -27 -83 -31 -422 l-4 -343 -369 0 -369 0 0 1730 0 1730 369
0 370 0 4 -347 c4 -386 7 -406 74 -538 91 -178 241 -305 438 -373 l80 -27 960
0 c1074 0 1011 -4 1160 72 178 91 305 241 373 438 l27 80 0 990 c0 1107 4
1041 -72 1190 -91 178 -241 305 -438 373 l-80 27 -940 1 c-517 1 -951 0 -965
-3z m1839 -608 c63 -32 61 8 61 -980 0 -989 3 -937 -64 -969 -31 -14 -119 -16
-901 -16 -956 0 -907 -3 -939 64 -14 31 -16 121 -16 931 0 986 -3 936 62 968
30 15 120 17 901 17 741 0 872 -2 896 -15z m-5189 -1950 c63 -32 60 14 60
-970 0 -984 3 -938 -60 -970 -25 -13 -140 -15 -895 -15 -755 0 -870 2 -895 15
-63 32 -60 -14 -60 970 0 980 -3 937 58 969 41 23 1749 23 1792 1z m5189
-2120 c63 -32 61 7 61 -975 0 -984 3 -932 -64 -964 -31 -14 -119 -16 -901 -16
-956 0 -907 -3 -939 64 -14 31 -16 121 -16 926 0 981 -3 931 62 963 30 15 120
17 901 17 741 0 872 -2 896 -15z"/>
</g>
</svg>
