<?xml version="1.0" standalone="no"?>
<!DOCTYPE svg PUBLIC "-//W3C//DTD SVG 20010904//EN"
 "http://www.w3.org/TR/2001/REC-SVG-20010904/DTD/svg10.dtd">
<svg version="1.0" xmlns="http://www.w3.org/2000/svg"
 width="586.000000pt" height="586.000000pt" viewBox="0 0 586.000000 586.000000"
 preserveAspectRatio="xMidYMid meet">

<g transform="translate(0.000000,586.000000) scale(0.100000,-0.100000)"
fill="#70C7BA" stroke="none">
<path d="M1990 5543 c-246 -26 -458 -206 -541 -458 -22 -68 -23 -83 -27 -537
l-4 -468 -25 0 c-40 0 -141 -29 -211 -61 -203 -92 -358 -276 -424 -506 l-23
-78 0 -1210 c0 -1142 1 -1214 18 -1274 78 -275 276 -473 554 -553 l78 -23
1530 0 c1452 0 1533 1 1594 18 275 78 473 276 553 554 l23 78 0 1210 c0 1142
-1 1214 -18 1274 -52 184 -160 337 -309 439 -100 69 -205 109 -365 138 l-21 4
-5 467 c-3 436 -5 472 -24 528 -72 216 -220 364 -438 436 l-70 24 -905 1
c-498 1 -921 0 -940 -3z m1740 -1043 l0 -410 -835 0 -835 0 0 410 0 410 835 0
835 0 0 -410z m707 -881 c68 -26 138 -91 173 -164 l25 -50 3 -1162 2 -1161
-21 -58 c-26 -69 -91 -138 -164 -174 l-50 -25 -1482 -3 -1482 -2 -57 21 c-69
26 -138 91 -174 164 l-25 50 -3 1159 c-2 1033 -1 1165 13 1207 31 94 107 168
205 202 40 14 204 16 1512 17 l1467 0 58 -21z"/>
<path d="M2740 2220 l0 -520 225 0 225 0 0 520 0 520 -225 0 -225 0 0 -520z"/>
</g>
</svg>
