<?xml version="1.0" standalone="no"?>
<!DOCTYPE svg PUBLIC "-//W3C//DTD SVG 20010904//EN"
 "http://www.w3.org/TR/2001/REC-SVG-20010904/DTD/svg10.dtd">
<svg version="1.0" xmlns="http://www.w3.org/2000/svg"
 width="512.000000pt" height="512.000000pt" viewBox="0 0 512.000000 512.000000"
 preserveAspectRatio="xMidYMid meet">

<g transform="translate(0.000000,512.000000) scale(0.100000,-0.100000)"
fill="#70C7BA" stroke="none">
<path d="M2540 5089 c-19 -6 -51 -23 -71 -38 -20 -14 -218 -204 -440 -421
-222 -217 -473 -462 -558 -545 -112 -109 -160 -164 -177 -200 -62 -130 -2
-282 131 -333 69 -27 105 -28 170 -5 43 16 96 63 403 363 195 190 358 346 363
348 5 2 10 -533 11 -1290 l3 -1293 28 -45 c106 -167 350 -154 433 24 l24 51 0
1278 c0 733 4 1277 9 1275 5 -1 164 -156 355 -343 289 -284 355 -344 398 -362
74 -31 122 -29 197 8 120 60 168 176 124 305 -14 43 -47 80 -292 319 -745 731
-889 868 -925 887 -46 24 -136 32 -186 17z"/>
<path d="M186 1563 c-29 -8 -87 -47 -113 -74 -12 -13 -31 -44 -42 -69 -20 -43
-21 -64 -21 -475 0 -405 1 -435 21 -505 29 -107 74 -185 151 -262 76 -76 154
-120 266 -149 73 -18 132 -19 2112 -19 1996 0 2038 0 2114 20 106 27 188 73
266 150 74 74 120 153 149 260 20 70 21 100 21 505 0 411 -1 432 -21 475 -24
54 -50 83 -104 119 -35 22 -51 26 -120 26 -69 0 -86 -4 -126 -27 -29 -17 -59
-47 -80 -80 l-34 -52 -5 -429 -5 -429 -28 -24 -28 -24 -1999 0 -1999 0 -28 24
-28 24 -5 429 -5 428 -30 48 c-45 71 -109 109 -193 113 -37 1 -76 0 -86 -3z"/>
</g>
</svg>
